#N canvas 28 53 1536 773 12;
#X obj 722 269 *~ 0.5;
#X obj 698 124 bng 15 250 50 0 empty empty empty 17 7 0 10 #fcfcfc #000000 #000000;
#X obj 704 191 cnv 15 50 35 empty empty empty 20 12 0 14 #dcdcdc #404040 0;
#X obj 795 191 cnv 15 50 35 empty empty empty 20 12 0 14 #b8b8b8 #404040 0;
#N canvas 334 84 593 485 bwoop 0;
#X obj -115 193 osc~;
#X obj -115 8 mtof;
#X msg 57 -42 0;
#X obj -115 217 *~;
#X obj 45 55 mtof;
#X obj 134 -134 inlet;
#X obj 134 -109 bng 15 250 50 0 empty empty empty 17 7 0 10 #fcfcfc #000000 #000000;
#X obj -115 241 outlet~;
#X obj 23 209 threshold~;
#X obj 23 186 osc~ 15;
#N canvas 0 22 450 278 (subpatch) 0;
#X array a8 2000 float 4;
#X coords 0 1 1999 -1 50 35 1 0 0;
#X restore 106 144 graph;
#X obj 23 234 tabwrite~ a8;
#X msg 45 33 100;
#X obj 6 72 *~;
#X msg -115 -94 56;
#X obj -115 111 +~;
#X text -99 -44 filtered sawtooth LFO;
#X text -218 193 sine at note #56;
#X text -94 92 low pass filter;
#X obj 6 -16 phasor~ 4;
#X obj 134 38 vline~;
#X msg 134 12 1 0 \, 0 250;
#X obj 6 94 lop~ 50;
#X connect 0 0 3 0;
#X connect 1 0 15 0;
#X connect 2 0 19 1;
#X connect 3 0 7 0;
#X connect 3 0 11 0;
#X connect 4 0 13 1;
#X connect 5 0 6 0;
#X connect 6 0 21 0;
#X connect 6 0 2 0;
#X connect 6 0 12 0;
#X connect 6 0 14 0;
#X connect 8 0 11 0;
#X connect 9 0 8 0;
#X connect 12 0 4 0;
#X connect 13 0 22 0;
#X connect 14 0 1 0;
#X connect 15 0 0 0;
#X connect 19 0 13 0;
#X connect 20 0 3 1;
#X connect 21 0 20 0;
#X connect 22 0 15 1;
#X coords 0 -1 1 1 85 85 1 100 100;
#X restore 698 147 pd bwoop;
#N canvas 38 25 545 307 coin_hit 0;
#X obj -17 169 clip~ -1 1;
#X obj -17 84 mtof;
#X obj -17 141 *~ 10000;
#X obj -17 112 osc~;
#X obj 53 26 delay 100;
#X msg -17 26 86;
#X msg 53 55 98;
#X obj 53 -17 bng 15 250 50 0 empty empty empty 17 7 0 10 #fcfcfc #000000 #000000;
#X obj 53 -39 inlet;
#X obj -17 221 outlet~;
#X obj 266 187 threshold~;
#X obj 266 164 osc~ 15;
#N canvas 0 22 450 278 (subpatch) 0;
#X array a9 2000 float 4;
#X coords 0 1 1999 -1 50 35 1 0 0;
#X restore 107 144 graph;
#X obj 266 212 tabwrite~ a9;
#X text -92 169 Square wave;
#X text -170 -5 Note 86 then 98 (1 octave jump);
#X msg 196 26 1 0 \, 0 250 0;
#X obj 196 178 vline~;
#X obj -17 195 *~;
#X connect 0 0 18 0;
#X connect 1 0 3 0;
#X connect 2 0 0 0;
#X connect 3 0 2 0;
#X connect 4 0 6 0;
#X connect 5 0 1 0;
#X connect 6 0 1 0;
#X connect 7 0 16 0;
#X connect 7 0 4 0;
#X connect 7 0 5 0;
#X connect 8 0 7 0;
#X connect 10 0 13 0;
#X connect 11 0 10 0;
#X connect 16 0 17 0;
#X connect 17 0 18 1;
#X connect 18 0 9 0;
#X connect 18 0 13 0;
#X coords 0 -1 1 1 85 85 1 100 100;
#X restore 788 147 pd coin_hit;
#X obj 710 375 dac~;
#X obj 800 296 threshold~;
#X obj 800 273 osc~ 15;
#N canvas 0 22 450 278 (subpatch) 0;
#X array outputArray 2000 float 4;
#X coords 0 1 1999 -1 200 140 1 0 0;
#X restore 710 448 graph;
#X obj 775 352 tabwrite~ outputArray;
#X obj 710 341 *~ 1;
#X text 805 322 以頻率15發出bang;
#X obj 673 67 receive triggerOn;
#X connect 0 0 11 0;
#X connect 0 0 10 0;
#X connect 1 0 4 0;
#X connect 1 0 5 0;
#X connect 4 0 0 0;
#X connect 5 0 0 0;
#X connect 7 0 10 0;
#X connect 8 0 7 0;
#X connect 11 0 6 0;
#X connect 11 0 6 1;
#X connect 13 0 1 0;
