#N canvas -1289 207 682 497 10;
#X text 126 253 tempo;
#X obj 133 506 i;
#X obj 171 505 + 1;
#X obj 215 304 r bpm;
#X floatatom 172 345 5 0 0 0 - - - 0;
#X msg 243 424 0;
#X obj 56 353 loadbang;
#X obj 195 427 tgl 15 0 empty empty empty 17 7 0 10 #fcfcfc #000000 #000000 0 1;
#X obj 600 1136 *~ 1;
#X text 785 877 Fmaj7;
#X text 245 871 Cmaj7;
#X text 388 866 Gbmin7;
#X obj 130 567 s tempo;
#X obj 541 730 r chord_sel;
#X obj 294 297 r tempo;
#X obj 215 504 % 16;
#X obj 572 492 *~;
#X obj 635 492 line~;
#X msg 635 467 1 \, 0 100;
#X obj 651 418 bng 15 250 50 0 empty empty empty 17 7 0 10 #fcfcfc #000000 #000000;
#X msg 573 443 0;
#X obj 572 467 osc~ 80;
#X obj 743 501 *~;
#X obj 806 479 line~;
#X obj 782 535 *~;
#X obj 813 415 bng 15 250 50 0 empty empty empty 17 7 0 10 #fcfcfc #000000 #000000;
#X obj 744 477 lop~ 30;
#X msg 804 451 1 \, 0 100;
#X obj 742 562 *~ 3;
#X obj 781 506 osc~ 150;
#X obj 782 561 *~ 0.1;
#X text 574 371 bassdrum;
#X text 805 367 snare;
#X obj 958 520 noise~;
#X obj 900 471 *~;
#X obj 946 474 line~;
#X msg 980 445 1 \, 0 40;
#X obj 981 416 bng 15 250 50 0 empty empty empty 17 7 0 10 #fcfcfc #000000 #000000;
#X obj 900 445 hip~ 1500;
#X text 971 351 hihat;
#X obj 1053 474 *~;
#X obj 1099 477 line~;
#X msg 1133 448 1 \, 0 40;
#X obj 1134 419 bng 15 250 50 0 empty empty empty 17 7 0 10 #fcfcfc #000000 #000000;
#X obj 1053 448 lop~ 1500;
#X text 1148 356 lowhat;
#X obj 1238 476 *~;
#X obj 1283 471 line~;
#X obj 1299 414 bng 15 250 50 0 empty empty empty 17 7 0 10 #fcfcfc #000000 #000000;
#X msg 1300 444 1 \, 0 120;
#X obj 892 256 r tempo;
#X text 540 415 bassdrum_msg;
#X text 746 413 snare_msg;
#X text 901 422 hihat_msg;
#X text 1051 419 lowhat_msg;
#X text 1194 417 tomtom1_msg;
#X obj 577 670 *~ 0.4;
#X obj 721 666 *~ 0.5;
#X msg 1254 353 120;
#X floatatom 1246 401 5 0 0 0 - - - 0;
#X msg 1439 440 240;
#X obj 1238 447 osc~;
#X floatatom 1198 634 5 0 0 0 - - - 0;
#X text 1286 315 totom;
#X obj 1136 668 *~;
#X msg 1293 355 190;
#X floatatom 925 652 5 0 0 0 - - - 0;
#X obj 858 668 *~;
#X msg 916 611 0.1;
#X msg 964 606 0.2;
#X msg 1289 587 0.8;
#X msg 1201 585 1;
#X msg 1244 588 0.9;
#X obj 894 288 sel 0 2 4 5 6 8 10 12 13 14;
#X text 1224 357 0 8;
#X text 1296 374 4 14;
#X text 1470 440 12;
#X text 1080 375 sel 0 2 6 8 10 14;
#X text 959 369 sel 4 12;
#X text 731 385 sel 0 2 4 5 6 8 10 12 13 14;
#X text 556 390 sel 0 2 4 6 8 10 12 14;
#X obj 1135 700 *~ 0.8;
#X obj 856 700 *~ 0.3;
#X obj 852 761 *~ 0.5;
#X obj 170 455 metro 250;
#X obj 20 448 s chord;
#X floatatom 22 416 5 0 0 0 - - - 0;
#X text 18 473 0 = maj \, 1 = min;
#N canvas 3071 338 1711 890 F7 0;
#X obj 782 292 bng 15 250 50 0 empty empty empty 17 7 0 10 #fcfcfc #000000 #000000;
#X obj 653 450 osc~;
#X obj 796 548 *~ 0.1;
#X obj 772 449 osc~;
#X obj 975 430 line~;
#X obj 772 499 *~;
#X obj 677 406 mtof;
#X obj 721 407 mtof;
#X obj 772 402 mtof;
#X obj 825 445 osc~;
#X obj 825 398 mtof;
#X obj 872 443 osc~;
#X obj 872 396 mtof;
#X obj 710 450 osc~;
#X msg 758 352 60;
#X obj 921 432 osc~;
#X obj 921 385 mtof;
#X msg 895 351 72;
#X msg 680 355 53;
#X text 88 282 Fmaj7 F A C E;
#X text 595 296 Fmin7 F bA C bE;
#X msg 716 353 56;
#X msg 800 352 63;
#X msg 847 350 68;
#X obj 252 320 bng 15 250 50 0 empty empty empty 17 7 0 10 #fcfcfc #000000 #000000;
#X obj 123 478 osc~;
#X obj 243 554 *~ 0.1;
#X obj 242 477 osc~;
#X obj 441 461 line~;
#X obj 242 527 *~;
#X obj 147 434 mtof;
#X obj 191 435 mtof;
#X obj 242 430 mtof;
#X obj 295 473 osc~;
#X obj 295 426 mtof;
#X obj 344 470 osc~;
#X obj 344 423 mtof;
#X obj 180 478 osc~;
#X msg 228 380 60;
#X msg 310 380 69;
#X obj 393 459 osc~;
#X obj 393 412 mtof;
#X msg 367 374 72;
#X msg 150 383 53;
#X msg 186 381 57;
#X msg 270 380 64;
#X obj 260 24 sel 2;
#X obj 198 23 inlet;
#X obj 295 91 r chord;
#X obj 214 124 sel 0 1;
#X floatatom 339 169 5 0 0 0 - - - 0;
#X obj 289 203 spigot;
#X obj 300 169 tgl 15 0 empty empty empty 17 7 0 10 #fcfcfc #000000 #000000 0 1;
#X msg 204 154 1;
#X msg 242 155 0;
#X obj 221 213 spigot;
#X obj 254 186 tgl 15 0 empty empty empty 17 7 0 10 #fcfcfc #000000 #000000 0 1;
#X obj 380 619 outlet~;
#X msg 413 370 1 \, 0 600;
#X msg 949 349 1 \, 0 600;
#X text 62 585 F A C E A C;
#X connect 0 0 18 0;
#X connect 0 0 21 0;
#X connect 0 0 14 0;
#X connect 0 0 22 0;
#X connect 0 0 59 0;
#X connect 0 0 17 0;
#X connect 0 0 23 0;
#X connect 1 0 5 0;
#X connect 2 0 57 0;
#X connect 3 0 5 0;
#X connect 4 0 5 1;
#X connect 5 0 2 0;
#X connect 6 0 1 0;
#X connect 7 0 13 0;
#X connect 8 0 3 0;
#X connect 9 0 5 0;
#X connect 10 0 9 0;
#X connect 11 0 5 0;
#X connect 12 0 11 0;
#X connect 13 0 5 0;
#X connect 14 0 8 0;
#X connect 15 0 5 0;
#X connect 16 0 15 0;
#X connect 17 0 16 0;
#X connect 18 0 6 0;
#X connect 21 0 7 0;
#X connect 22 0 10 0;
#X connect 23 0 12 0;
#X connect 24 0 43 0;
#X connect 24 0 44 0;
#X connect 24 0 38 0;
#X connect 24 0 45 0;
#X connect 24 0 39 0;
#X connect 24 0 58 0;
#X connect 24 0 42 0;
#X connect 25 0 29 0;
#X connect 26 0 57 0;
#X connect 27 0 29 0;
#X connect 28 0 29 1;
#X connect 29 0 26 0;
#X connect 30 0 25 0;
#X connect 31 0 37 0;
#X connect 32 0 27 0;
#X connect 33 0 29 0;
#X connect 34 0 33 0;
#X connect 35 0 29 0;
#X connect 36 0 35 0;
#X connect 37 0 29 0;
#X connect 38 0 32 0;
#X connect 39 0 36 0;
#X connect 40 0 29 0;
#X connect 41 0 40 0;
#X connect 42 0 41 0;
#X connect 43 0 30 0;
#X connect 44 0 31 0;
#X connect 45 0 34 0;
#X connect 47 0 55 0;
#X connect 47 0 51 0;
#X connect 48 0 50 0;
#X connect 48 0 52 0;
#X connect 48 0 49 0;
#X connect 49 0 53 0;
#X connect 49 1 54 0;
#X connect 51 0 0 0;
#X connect 52 0 51 1;
#X connect 53 0 56 0;
#X connect 54 0 56 0;
#X connect 55 0 24 0;
#X connect 56 0 55 1;
#X connect 58 0 28 0;
#X connect 59 0 4 0;
#X restore 713 920 pd F7;
#X obj 766 925 bng 15 250 50 0 empty empty empty 17 7 0 10 #fcfcfc #000000 #000000;
#N canvas 3265 299 1711 921 C7 0;
#X obj 567 399 bng 15 250 50 0 empty empty empty 17 7 0 10 #fcfcfc #000000 #000000;
#X obj 438 557 osc~;
#X obj 581 655 *~ 0.1;
#X obj 557 556 osc~;
#X obj 816 527 line~;
#X obj 557 606 *~;
#X obj 462 513 mtof;
#X obj 506 514 mtof;
#X obj 557 509 mtof;
#X obj 610 552 osc~;
#X obj 610 505 mtof;
#X obj 665 545 osc~;
#X obj 665 498 mtof;
#X obj 718 539 osc~;
#X obj 718 492 mtof;
#X obj 495 557 osc~;
#X obj 767 528 osc~;
#X obj 767 481 mtof;
#X msg 543 459 55;
#X msg 665 454 67;
#X text 32 342 Cmaj7 C E G B;
#X text 638 385 Cmin7 C bE G bB;
#X msg 513 487 52;
#X msg 465 462 48;
#X msg 501 460 51;
#X msg 576 484 59;
#X msg 585 459 58;
#X msg 630 478 64;
#X msg 624 456 62;
#X msg 773 438 71;
#X msg 736 432 70;
#X obj 145 377 bng 15 250 50 0 empty empty empty 17 7 0 10 #fcfcfc #000000 #000000;
#X obj 16 535 osc~;
#X obj 159 633 *~ 0.1;
#X obj 135 534 osc~;
#X obj 391 504 line~;
#X obj 135 584 *~;
#X obj 40 491 mtof;
#X obj 84 492 mtof;
#X obj 135 487 mtof;
#X obj 188 530 osc~;
#X obj 188 483 mtof;
#X obj 243 523 osc~;
#X obj 243 476 mtof;
#X obj 296 517 osc~;
#X obj 296 470 mtof;
#X obj 73 535 osc~;
#X obj 345 506 osc~;
#X obj 345 459 mtof;
#X msg 43 440 36;
#X msg 79 438 52;
#X msg 121 437 55;
#X msg 163 437 59;
#X msg 202 434 64;
#X msg 243 432 67;
#X msg 314 410 71;
#X obj 348 731 outlet~;
#X obj 159 75 inlet;
#X obj 256 143 r chord;
#X obj 175 176 sel 0 1;
#X floatatom 300 221 5 0 0 0 - - - 0;
#X obj 250 255 spigot;
#X obj 261 221 tgl 15 0 empty empty empty 17 7 0 10 #fcfcfc #000000 #000000 0 1;
#X msg 165 206 1;
#X msg 203 207 0;
#X obj 182 265 spigot;
#X obj 215 238 tgl 15 0 empty empty empty 17 7 0 10 #fcfcfc #000000 #000000 0 1;
#X obj 219 76 sel 3;
#X msg 378 407 1 \, 0 600;
#X msg 818 479 1 \, 0 600;
#X connect 0 0 23 0;
#X connect 0 0 24 0;
#X connect 0 0 18 0;
#X connect 0 0 26 0;
#X connect 0 0 28 0;
#X connect 0 0 19 0;
#X connect 0 0 69 0;
#X connect 0 0 30 0;
#X connect 1 0 5 0;
#X connect 2 0 56 0;
#X connect 3 0 5 0;
#X connect 4 0 5 1;
#X connect 5 0 2 0;
#X connect 6 0 1 0;
#X connect 7 0 15 0;
#X connect 8 0 3 0;
#X connect 9 0 5 0;
#X connect 10 0 9 0;
#X connect 11 0 5 0;
#X connect 12 0 11 0;
#X connect 13 0 5 0;
#X connect 14 0 13 0;
#X connect 15 0 5 0;
#X connect 16 0 5 0;
#X connect 17 0 16 0;
#X connect 18 0 8 0;
#X connect 19 0 14 0;
#X connect 23 0 6 0;
#X connect 24 0 7 0;
#X connect 26 0 10 0;
#X connect 28 0 12 0;
#X connect 30 0 17 0;
#X connect 31 0 49 0;
#X connect 31 0 50 0;
#X connect 31 0 51 0;
#X connect 31 0 52 0;
#X connect 31 0 53 0;
#X connect 31 0 54 0;
#X connect 31 0 68 0;
#X connect 31 0 55 0;
#X connect 32 0 36 0;
#X connect 33 0 56 0;
#X connect 34 0 36 0;
#X connect 35 0 36 1;
#X connect 36 0 33 0;
#X connect 37 0 32 0;
#X connect 38 0 46 0;
#X connect 39 0 34 0;
#X connect 40 0 36 0;
#X connect 41 0 40 0;
#X connect 42 0 36 0;
#X connect 43 0 42 0;
#X connect 44 0 36 0;
#X connect 45 0 44 0;
#X connect 46 0 36 0;
#X connect 47 0 36 0;
#X connect 48 0 47 0;
#X connect 49 0 37 0;
#X connect 50 0 38 0;
#X connect 51 0 39 0;
#X connect 52 0 41 0;
#X connect 53 0 43 0;
#X connect 54 0 45 0;
#X connect 55 0 48 0;
#X connect 57 0 65 0;
#X connect 57 0 61 0;
#X connect 58 0 60 0;
#X connect 58 0 62 0;
#X connect 58 0 59 0;
#X connect 59 0 63 0;
#X connect 59 1 64 0;
#X connect 61 0 0 0;
#X connect 62 0 61 1;
#X connect 63 0 66 0;
#X connect 64 0 66 0;
#X connect 65 0 31 0;
#X connect 66 0 65 1;
#X connect 68 0 35 0;
#X connect 69 0 4 0;
#X restore 196 911 pd C7;
#X obj 245 916 bng 15 250 50 0 empty empty empty 17 7 0 10 #fcfcfc #000000 #000000;
#N canvas 3422 346 1920 976 G7 0;
#X obj 239 321 bng 15 250 50 0 empty empty empty 17 7 0 10 #fcfcfc #000000 #000000;
#X obj 110 479 osc~;
#X obj 253 577 *~ 0.1;
#X obj 167 479 osc~;
#X obj 229 478 osc~;
#X obj 229 528 *~;
#X obj 134 435 mtof;
#X obj 178 436 mtof;
#X obj 229 431 mtof;
#X obj 282 474 osc~;
#X obj 282 427 mtof;
#X obj 337 467 osc~;
#X obj 337 420 mtof;
#X obj 390 461 osc~;
#X obj 390 414 mtof;
#X obj 439 464 line~;
#X msg 296 378 71;
#X msg 337 376 74;
#X msg 137 384 55;
#X msg 173 382 59;
#X msg 215 381 50;
#X msg 257 381 66;
#X text 177 318 Gmaj7;
#X obj 331 222 r chord;
#X obj 221 215 sel 0 1;
#X floatatom 346 260 5 0 0 0 - - - 0;
#X obj 295 290 spigot;
#X obj 307 260 tgl 15 0 empty empty empty 17 7 0 10 #fcfcfc #000000 #000000 0 1;
#X msg 211 245 1;
#X msg 249 246 0;
#X obj 210 296 spigot;
#X obj 261 277 tgl 15 0 empty empty empty 17 7 0 10 #fcfcfc #000000 #000000 0 1;
#X obj 730 362 bng 15 250 50 0 empty empty empty 17 7 0 10 #fcfcfc #000000 #000000;
#X obj 601 520 osc~;
#X obj 744 618 *~ 0.1;
#X obj 658 520 osc~;
#X obj 720 519 osc~;
#X obj 720 569 *~;
#X obj 625 476 mtof;
#X obj 669 477 mtof;
#X obj 720 472 mtof;
#X obj 773 515 osc~;
#X obj 773 468 mtof;
#X obj 828 508 osc~;
#X obj 828 461 mtof;
#X obj 881 502 osc~;
#X obj 881 455 mtof;
#X obj 945 512 line~;
#X msg 828 417 74;
#X msg 628 425 55;
#X msg 675 449 59;
#X msg 664 423 58;
#X msg 763 448 66;
#X msg 748 422 65;
#X text 546 364 G Bb D F Bb D;
#X msg 804 445 71;
#X msg 706 422 62;
#X msg 787 419 70;
#X text 670 361 minor;
#X obj 436 144 sel 4;
#X obj 351 145 inlet;
#X obj 375 691 outlet~;
#X msg 429 376 1 \, 0 600;
#X msg 967 486 1 \, 0 600;
#X connect 0 0 18 0;
#X connect 0 0 19 0;
#X connect 0 0 20 0;
#X connect 0 0 21 0;
#X connect 0 0 16 0;
#X connect 0 0 17 0;
#X connect 0 0 62 0;
#X connect 1 0 5 0;
#X connect 2 0 61 0;
#X connect 3 0 5 0;
#X connect 4 0 5 0;
#X connect 5 0 2 0;
#X connect 6 0 1 0;
#X connect 7 0 3 0;
#X connect 8 0 4 0;
#X connect 9 0 5 0;
#X connect 10 0 9 0;
#X connect 11 0 5 0;
#X connect 12 0 11 0;
#X connect 13 0 5 0;
#X connect 14 0 13 0;
#X connect 15 0 5 1;
#X connect 16 0 12 0;
#X connect 17 0 14 0;
#X connect 18 0 6 0;
#X connect 19 0 7 0;
#X connect 20 0 8 0;
#X connect 21 0 10 0;
#X connect 23 0 25 0;
#X connect 23 0 27 0;
#X connect 23 0 24 0;
#X connect 24 0 28 0;
#X connect 24 1 29 0;
#X connect 26 0 32 0;
#X connect 27 0 26 1;
#X connect 28 0 31 0;
#X connect 29 0 31 0;
#X connect 30 0 0 0;
#X connect 31 0 30 1;
#X connect 32 0 49 0;
#X connect 32 0 51 0;
#X connect 32 0 56 0;
#X connect 32 0 53 0;
#X connect 32 0 57 0;
#X connect 32 0 48 0;
#X connect 32 0 63 0;
#X connect 33 0 37 0;
#X connect 34 0 61 0;
#X connect 35 0 37 0;
#X connect 36 0 37 0;
#X connect 37 0 34 0;
#X connect 38 0 33 0;
#X connect 39 0 35 0;
#X connect 40 0 36 0;
#X connect 41 0 37 0;
#X connect 42 0 41 0;
#X connect 44 0 43 0;
#X connect 45 0 37 0;
#X connect 46 0 45 0;
#X connect 47 0 37 1;
#X connect 48 0 46 0;
#X connect 49 0 38 0;
#X connect 51 0 39 0;
#X connect 53 0 42 0;
#X connect 56 0 40 0;
#X connect 57 0 44 0;
#X connect 60 0 26 0;
#X connect 60 0 30 0;
#X connect 62 0 15 0;
#X connect 63 0 47 0;
#X restore 311 905 pd G7;
#X obj 368 909 bng 15 250 50 0 empty empty empty 17 7 0 10 #fcfcfc #000000 #000000;
#N canvas 3520 255 1711 921 Amin7b5 0;
#X text 450 231 Amin7b5;
#X obj 581 228 bng 15 250 50 0 empty empty empty 17 7 0 10 #fcfcfc #000000 #000000;
#X obj 452 386 osc~;
#X obj 595 484 *~ 0.1;
#X obj 571 385 osc~;
#X obj 777 365 line~;
#X obj 571 435 *~;
#X obj 476 342 mtof;
#X obj 520 343 mtof;
#X obj 571 338 mtof;
#X obj 624 381 osc~;
#X obj 624 334 mtof;
#X obj 679 374 osc~;
#X obj 679 327 mtof;
#X obj 732 368 osc~;
#X obj 732 321 mtof;
#X obj 509 386 osc~;
#X msg 479 291 57;
#X msg 515 289 60;
#X msg 557 288 63;
#X msg 599 288 67;
#X msg 638 285 72;
#X msg 679 283 75;
#X obj 452 45 sel 6;
#X obj 412 568 outlet~;
#X msg 773 281 1 \, 0 600;
#X obj 175 246 bng 15 250 50 0 empty empty empty 17 7 0 10 #fcfcfc #000000 #000000;
#X obj 46 404 osc~;
#X obj 189 502 *~ 0.1;
#X obj 165 403 osc~;
#X obj 331 388 line~;
#X obj 165 453 *~;
#X obj 70 360 mtof;
#X obj 114 361 mtof;
#X obj 165 356 mtof;
#X obj 218 399 osc~;
#X obj 218 352 mtof;
#X obj 273 392 osc~;
#X obj 273 345 mtof;
#X obj 103 404 osc~;
#X msg 73 309 57;
#X msg 327 304 1 \, 0 600;
#X msg 109 307 61;
#X msg 151 306 64;
#X msg 193 307 68;
#X msg 232 303 71;
#X obj 267 22 inlet;
#X obj 364 90 r chord;
#X obj 283 123 sel 0 1;
#X floatatom 408 168 5 0 0 0 - - - 0;
#X obj 372 200 spigot;
#X obj 369 168 tgl 15 0 empty empty empty 17 7 0 10 #fcfcfc #000000 #000000 0 1;
#X msg 273 153 1;
#X msg 311 154 0;
#X obj 290 212 spigot;
#X obj 323 185 tgl 15 0 empty empty empty 17 7 0 10 #fcfcfc #000000 #000000 0 1;
#X text 37 177 Amaj9 A - C# - E - G# - B;
#X connect 1 0 17 0;
#X connect 1 0 18 0;
#X connect 1 0 19 0;
#X connect 1 0 20 0;
#X connect 1 0 21 0;
#X connect 1 0 22 0;
#X connect 1 0 25 0;
#X connect 2 0 6 0;
#X connect 3 0 24 0;
#X connect 4 0 6 0;
#X connect 5 0 6 1;
#X connect 6 0 3 0;
#X connect 7 0 2 0;
#X connect 8 0 16 0;
#X connect 9 0 4 0;
#X connect 10 0 6 0;
#X connect 11 0 10 0;
#X connect 12 0 6 0;
#X connect 13 0 12 0;
#X connect 14 0 6 0;
#X connect 15 0 14 0;
#X connect 16 0 6 0;
#X connect 17 0 7 0;
#X connect 18 0 8 0;
#X connect 19 0 9 0;
#X connect 20 0 11 0;
#X connect 21 0 13 0;
#X connect 22 0 15 0;
#X connect 25 0 5 0;
#X connect 26 0 40 0;
#X connect 26 0 42 0;
#X connect 26 0 43 0;
#X connect 26 0 44 0;
#X connect 26 0 45 0;
#X connect 26 0 41 0;
#X connect 27 0 31 0;
#X connect 28 0 24 0;
#X connect 29 0 31 0;
#X connect 30 0 31 1;
#X connect 31 0 28 0;
#X connect 32 0 27 0;
#X connect 33 0 39 0;
#X connect 34 0 29 0;
#X connect 35 0 31 0;
#X connect 36 0 35 0;
#X connect 37 0 31 0;
#X connect 38 0 37 0;
#X connect 39 0 31 0;
#X connect 40 0 32 0;
#X connect 41 0 30 0;
#X connect 42 0 33 0;
#X connect 43 0 34 0;
#X connect 44 0 36 0;
#X connect 45 0 38 0;
#X connect 46 0 54 0;
#X connect 46 0 50 0;
#X connect 47 0 49 0;
#X connect 47 0 51 0;
#X connect 47 0 48 0;
#X connect 48 0 52 0;
#X connect 48 1 53 0;
#X connect 50 0 1 0;
#X connect 51 0 50 1;
#X connect 52 0 55 0;
#X connect 53 0 55 0;
#X connect 54 0 26 0;
#X connect 55 0 54 1;
#X restore 816 933 pd Amin7b5;
#X obj 913 928 bng 15 250 50 0 empty empty empty 17 7 0 10 #fcfcfc #000000 #000000;
#X text 300 261 chord;
#X obj 742 834 bng 15 250 50 0 empty empty empty 17 7 0 10 #fcfcfc #000000 #000000;
#X obj 187 850 bng 15 250 50 0 empty empty empty 17 7 0 10 #fcfcfc #000000 #000000;
#X obj 303 870 bng 15 250 50 0 empty empty empty 17 7 0 10 #fcfcfc #000000 #000000;
#X obj 812 839 bng 15 250 50 0 empty empty empty 17 7 0 10 #fcfcfc #000000 #000000;
#X obj 280 650 s chord_sel;
#X obj 356 446 bng 15 250 50 0 empty empty empty 17 7 0 10 #fcfcfc #000000 #000000;
#X obj 290 379 sel 0 8;
#X floatatom 307 529 5 0 0 0 - - - 0;
#X obj 678 902 bng 15 250 50 0 empty empty empty 17 7 0 10 #fcfcfc #000000 #000000;
#X obj 629 832 bng 15 250 50 0 empty empty empty 17 7 0 10 #fcfcfc #000000 #000000;
#X obj 143 919 bng 15 250 50 0 empty empty empty 17 7 0 10 #fcfcfc #000000 #000000;
#X obj 93 830 bng 15 250 50 0 empty empty empty 17 7 0 10 #fcfcfc #000000 #000000;
#X obj 84 870 sel 0;
#X obj 618 871 sel 4;
#X obj 580 1015 *~ 0.4;
#X obj 546 910 bng 15 250 50 0 empty empty empty 17 7 0 10 #fcfcfc #000000 #000000;
#X obj 493 848 bng 15 250 50 0 empty empty empty 17 7 0 10 #fcfcfc #000000 #000000;
#X text 519 870 Ebmaj9;
#N canvas 3251 816 1711 933 Eb 0;
#X obj 870 304 bng 15 250 50 0 empty empty empty 17 7 0 10 #fcfcfc #000000 #000000;
#X obj 741 462 osc~;
#X obj 861 538 *~ 0.1;
#X obj 860 461 osc~;
#X obj 1085 444 line~;
#X obj 860 511 *~;
#X obj 765 418 mtof;
#X obj 809 419 mtof;
#X obj 860 414 mtof;
#X obj 913 457 osc~;
#X obj 913 410 mtof;
#X obj 968 450 osc~;
#X obj 968 403 mtof;
#X obj 1021 444 osc~;
#X obj 1021 397 mtof;
#X obj 798 462 osc~;
#X obj 260 24 sel 2;
#X obj 198 23 inlet;
#X obj 295 91 r chord;
#X obj 214 124 sel 0 1;
#X floatatom 339 169 5 0 0 0 - - - 0;
#X obj 289 203 spigot;
#X obj 300 169 tgl 15 0 empty empty empty 17 7 0 10 #fcfcfc #000000 #000000 0 1;
#X msg 204 154 1;
#X msg 242 155 0;
#X obj 221 213 spigot;
#X obj 254 186 tgl 15 0 empty empty empty 17 7 0 10 #fcfcfc #000000 #000000 0 1;
#X obj 503 678 outlet~;
#X msg 1072 353 1 \, 0 600;
#X obj 224 346 bng 15 250 50 0 empty empty empty 17 7 0 10 #fcfcfc #000000 #000000;
#X obj 95 504 osc~;
#X obj 215 580 *~ 0.1;
#X obj 214 503 osc~;
#X obj 473 479 line~;
#X obj 214 553 *~;
#X obj 119 460 mtof;
#X obj 163 461 mtof;
#X obj 214 456 mtof;
#X obj 267 499 osc~;
#X obj 267 452 mtof;
#X obj 322 492 osc~;
#X obj 322 445 mtof;
#X obj 375 486 osc~;
#X obj 375 439 mtof;
#X obj 152 504 osc~;
#X msg 448 379 1 \, 0 600;
#X text 646 305 Eb - Gb - Bb - Db - F - Ab;
#X msg 764 368 51;
#X msg 804 365 54;
#X msg 847 365 58;
#X msg 888 364 61;
#X msg 926 363 65;
#X msg 968 359 68;
#X text 103 304 bE G bB D F C;
#X msg 123 409 51;
#X msg 158 407 55;
#X msg 200 408 58;
#X msg 242 406 62;
#X msg 280 403 65;
#X msg 343 400 72;
#X connect 0 0 28 0;
#X connect 0 0 52 0;
#X connect 0 0 51 0;
#X connect 0 0 50 0;
#X connect 0 0 49 0;
#X connect 0 0 48 0;
#X connect 0 0 47 0;
#X connect 1 0 5 0;
#X connect 2 0 27 0;
#X connect 3 0 5 0;
#X connect 4 0 5 1;
#X connect 5 0 2 0;
#X connect 6 0 1 0;
#X connect 7 0 15 0;
#X connect 8 0 3 0;
#X connect 9 0 5 0;
#X connect 10 0 9 0;
#X connect 11 0 5 0;
#X connect 12 0 11 0;
#X connect 13 0 5 0;
#X connect 14 0 13 0;
#X connect 15 0 5 0;
#X connect 17 0 25 0;
#X connect 17 0 21 0;
#X connect 18 0 20 0;
#X connect 18 0 22 0;
#X connect 18 0 19 0;
#X connect 19 0 23 0;
#X connect 19 1 24 0;
#X connect 21 0 0 0;
#X connect 22 0 21 1;
#X connect 23 0 26 0;
#X connect 24 0 26 0;
#X connect 25 0 29 0;
#X connect 26 0 25 1;
#X connect 28 0 4 0;
#X connect 29 0 45 0;
#X connect 29 0 58 0;
#X connect 29 0 57 0;
#X connect 29 0 55 0;
#X connect 29 0 54 0;
#X connect 29 0 59 0;
#X connect 29 0 56 0;
#X connect 30 0 34 0;
#X connect 31 0 27 0;
#X connect 32 0 34 0;
#X connect 33 0 34 1;
#X connect 34 0 31 0;
#X connect 35 0 30 0;
#X connect 36 0 44 0;
#X connect 37 0 32 0;
#X connect 38 0 34 0;
#X connect 39 0 38 0;
#X connect 40 0 34 0;
#X connect 41 0 40 0;
#X connect 43 0 42 0;
#X connect 44 0 34 0;
#X connect 45 0 33 0;
#X connect 47 0 6 0;
#X connect 48 0 7 0;
#X connect 49 0 8 0;
#X connect 50 0 10 0;
#X connect 51 0 12 0;
#X connect 52 0 14 0;
#X connect 54 0 35 0;
#X connect 55 0 36 0;
#X connect 56 0 37 0;
#X connect 57 0 39 0;
#X connect 58 0 41 0;
#X connect 59 0 43 0;
#X restore 589 913 pd Eb 11;
#N canvas 2835 508 1920 976 C11 0;
#X obj 642 273 bng 15 250 50 0 empty empty empty 17 7 0 10 #fcfcfc #000000 #000000;
#X obj 513 431 osc~;
#X obj 633 507 *~ 0.1;
#X obj 632 430 osc~;
#X obj 891 406 line~;
#X obj 632 480 *~;
#X obj 537 387 mtof;
#X obj 581 388 mtof;
#X obj 632 383 mtof;
#X obj 685 426 osc~;
#X obj 685 379 mtof;
#X obj 740 419 osc~;
#X obj 740 372 mtof;
#X obj 793 413 osc~;
#X obj 793 366 mtof;
#X obj 570 431 osc~;
#X obj 260 24 sel 2;
#X obj 198 23 inlet;
#X obj 295 91 r chord;
#X obj 214 124 sel 0 1;
#X floatatom 339 169 5 0 0 0 - - - 0;
#X obj 289 203 spigot;
#X obj 300 169 tgl 15 0 empty empty empty 17 7 0 10 #fcfcfc #000000 #000000 0 1;
#X msg 204 154 1;
#X msg 242 155 0;
#X obj 221 213 spigot;
#X obj 254 186 tgl 15 0 empty empty empty 17 7 0 10 #fcfcfc #000000 #000000 0 1;
#X obj 380 619 outlet~;
#X msg 866 306 1 \, 0 600;
#X msg 541 336 60;
#X msg 575 334 63;
#X msg 619 334 67;
#X msg 661 335 70;
#X msg 698 330 74;
#X msg 740 328 77;
#X text 657 224 Cmin11 C - Eb - G - Bb - D - F;
#X text 37 265 Cmaj13 C - E - G - B - D - A;
#X obj 162 294 bng 15 250 50 0 empty empty empty 17 7 0 10 #fcfcfc #000000 #000000;
#X obj 33 452 osc~;
#X obj 153 528 *~ 0.1;
#X obj 152 451 osc~;
#X obj 411 427 line~;
#X obj 152 501 *~;
#X obj 57 408 mtof;
#X obj 101 409 mtof;
#X obj 152 404 mtof;
#X obj 205 447 osc~;
#X obj 205 400 mtof;
#X obj 260 440 osc~;
#X obj 260 393 mtof;
#X obj 313 434 osc~;
#X obj 313 387 mtof;
#X obj 90 452 osc~;
#X msg 386 327 1 \, 0 600;
#X msg 61 357 60;
#X msg 145 358 67;
#X msg 95 355 64;
#X msg 181 356 71;
#X msg 218 351 74;
#X msg 260 349 81;
#X connect 0 0 28 0;
#X connect 0 0 34 0;
#X connect 0 0 33 0;
#X connect 0 0 32 0;
#X connect 0 0 31 0;
#X connect 0 0 30 0;
#X connect 0 0 29 0;
#X connect 1 0 5 0;
#X connect 2 0 27 0;
#X connect 3 0 5 0;
#X connect 4 0 5 1;
#X connect 5 0 2 0;
#X connect 6 0 1 0;
#X connect 7 0 15 0;
#X connect 8 0 3 0;
#X connect 9 0 5 0;
#X connect 10 0 9 0;
#X connect 11 0 5 0;
#X connect 12 0 11 0;
#X connect 14 0 13 0;
#X connect 15 0 5 0;
#X connect 17 0 25 0;
#X connect 17 0 21 0;
#X connect 18 0 20 0;
#X connect 18 0 22 0;
#X connect 18 0 19 0;
#X connect 19 0 23 0;
#X connect 19 1 24 0;
#X connect 21 0 0 0;
#X connect 22 0 21 1;
#X connect 23 0 26 0;
#X connect 24 0 26 0;
#X connect 25 0 37 0;
#X connect 26 0 25 1;
#X connect 28 0 4 0;
#X connect 29 0 6 0;
#X connect 30 0 7 0;
#X connect 31 0 8 0;
#X connect 32 0 10 0;
#X connect 33 0 12 0;
#X connect 34 0 14 0;
#X connect 37 0 53 0;
#X connect 37 0 59 0;
#X connect 37 0 58 0;
#X connect 37 0 57 0;
#X connect 37 0 55 0;
#X connect 37 0 56 0;
#X connect 37 0 54 0;
#X connect 38 0 42 0;
#X connect 39 0 27 0;
#X connect 40 0 42 0;
#X connect 41 0 42 1;
#X connect 42 0 39 0;
#X connect 43 0 38 0;
#X connect 44 0 52 0;
#X connect 45 0 40 0;
#X connect 46 0 42 0;
#X connect 47 0 46 0;
#X connect 48 0 42 0;
#X connect 49 0 48 0;
#X connect 51 0 50 0;
#X connect 52 0 42 0;
#X connect 53 0 41 0;
#X connect 54 0 43 0;
#X connect 55 0 45 0;
#X connect 56 0 44 0;
#X connect 57 0 47 0;
#X connect 58 0 49 0;
#X connect 59 0 51 0;
#X restore 71 906 pd C11 C13;
#N canvas 3097 394 1920 984 A11 0;
#X obj 554 283 bng 15 250 50 0 empty empty empty 17 7 0 10 #fcfcfc #000000 #000000;
#X obj 443 440 osc~;
#X obj 568 539 *~ 0.1;
#X obj 485 441 osc~;
#X obj 530 440 osc~;
#X obj 544 490 *~;
#X obj 443 397 mtof;
#X obj 485 398 mtof;
#X obj 531 397 mtof;
#X obj 572 441 osc~;
#X obj 573 398 mtof;
#X obj 618 441 osc~;
#X obj 615 398 mtof;
#X obj 660 443 osc~;
#X obj 656 397 mtof;
#X obj 643 283 sel 0;
#X obj 706 444 line~;
#X msg 445 347 57;
#X msg 488 344 60;
#X msg 532 344 64;
#X msg 572 343 67;
#X msg 611 344 71;
#X msg 655 344 74;
#X obj 494 105 sel 0;
#X text 389 278 Amin11 A C E G B D;
#X obj 208 569 outlet~;
#X text 39 178 Amaj13 A - C# - E - G# - B - F#;
#X obj 158 269 bng 15 250 50 0 empty empty empty 17 7 0 10 #fcfcfc #000000 #000000;
#X obj 47 426 osc~;
#X obj 172 525 *~ 0.1;
#X obj 89 427 osc~;
#X obj 134 426 osc~;
#X obj 148 476 *~;
#X obj 47 383 mtof;
#X obj 89 384 mtof;
#X obj 135 383 mtof;
#X obj 176 427 osc~;
#X obj 177 384 mtof;
#X obj 222 427 osc~;
#X obj 219 384 mtof;
#X obj 247 269 sel 0;
#X obj 284 427 line~;
#X msg 49 333 57;
#X msg 136 330 64;
#X msg 215 330 71;
#X msg 92 330 61;
#X msg 176 329 68;
#X obj 280 16 inlet;
#X obj 377 84 r chord;
#X obj 296 117 sel 0 1;
#X floatatom 421 162 5 0 0 0 - - - 0;
#X obj 371 196 spigot;
#X obj 382 162 tgl 15 0 empty empty empty 17 7 0 10 #fcfcfc #000000 #000000 0 1;
#X msg 286 147 1;
#X msg 324 148 0;
#X obj 303 206 spigot;
#X obj 336 179 tgl 15 0 empty empty empty 17 7 0 10 #fcfcfc #000000 #000000 0 1;
#X msg 276 326 1 \, 0 600;
#X msg 698 343 1 \, 0 600;
#X connect 0 0 17 0;
#X connect 0 0 18 0;
#X connect 0 0 19 0;
#X connect 0 0 20 0;
#X connect 0 0 21 0;
#X connect 0 0 22 0;
#X connect 0 0 58 0;
#X connect 1 0 5 0;
#X connect 2 0 25 0;
#X connect 3 0 5 0;
#X connect 4 0 5 0;
#X connect 5 0 2 0;
#X connect 6 0 1 0;
#X connect 7 0 3 0;
#X connect 8 0 4 0;
#X connect 9 0 5 0;
#X connect 10 0 9 0;
#X connect 11 0 5 0;
#X connect 12 0 11 0;
#X connect 13 0 5 0;
#X connect 14 0 13 0;
#X connect 15 0 0 0;
#X connect 16 0 5 1;
#X connect 17 0 6 0;
#X connect 18 0 7 0;
#X connect 19 0 8 0;
#X connect 20 0 10 0;
#X connect 21 0 12 0;
#X connect 22 0 14 0;
#X connect 27 0 42 0;
#X connect 27 0 45 0;
#X connect 27 0 43 0;
#X connect 27 0 46 0;
#X connect 27 0 44 0;
#X connect 27 0 57 0;
#X connect 28 0 32 0;
#X connect 29 0 25 0;
#X connect 30 0 32 0;
#X connect 31 0 32 0;
#X connect 32 0 29 0;
#X connect 33 0 28 0;
#X connect 34 0 30 0;
#X connect 35 0 31 0;
#X connect 36 0 32 0;
#X connect 37 0 36 0;
#X connect 38 0 32 0;
#X connect 39 0 38 0;
#X connect 40 0 27 0;
#X connect 41 0 32 1;
#X connect 42 0 33 0;
#X connect 43 0 35 0;
#X connect 44 0 39 0;
#X connect 45 0 34 0;
#X connect 46 0 37 0;
#X connect 47 0 55 0;
#X connect 47 0 51 0;
#X connect 48 0 50 0;
#X connect 48 0 52 0;
#X connect 48 0 49 0;
#X connect 49 0 53 0;
#X connect 49 1 54 0;
#X connect 51 0 0 0;
#X connect 52 0 51 1;
#X connect 53 0 56 0;
#X connect 54 0 56 0;
#X connect 55 0 27 0;
#X connect 56 0 55 1;
#X connect 57 0 41 0;
#X connect 58 0 16 0;
#X restore 850 906 pd A11;
#X obj 196 871 sel 1;
#X obj 731 875 sel 5;
#X obj 870 865 sel 6;
#X obj 338 867 sel 2;
#X obj 464 866 sel 3;
#N canvas 25 302 1711 921 Eb13 0;
#X obj 796 548 *~ 0.1;
#X obj 252 320 bng 15 250 50 0 empty empty empty 17 7 0 10 #fcfcfc #000000 #000000;
#X obj 123 478 osc~;
#X obj 243 554 *~ 0.1;
#X obj 242 477 osc~;
#X obj 501 453 line~;
#X obj 242 527 *~;
#X obj 147 434 mtof;
#X obj 191 435 mtof;
#X obj 242 430 mtof;
#X obj 295 473 osc~;
#X obj 295 426 mtof;
#X obj 350 466 osc~;
#X obj 350 419 mtof;
#X obj 403 460 osc~;
#X obj 403 413 mtof;
#X obj 180 478 osc~;
#X obj 260 24 sel 2;
#X obj 198 23 inlet;
#X obj 295 91 r chord;
#X obj 214 124 sel 0 1;
#X floatatom 339 169 5 0 0 0 - - - 0;
#X obj 289 203 spigot;
#X obj 300 169 tgl 15 0 empty empty empty 17 7 0 10 #fcfcfc #000000 #000000 0 1;
#X msg 204 154 1;
#X msg 242 155 0;
#X obj 221 213 spigot;
#X obj 254 186 tgl 15 0 empty empty empty 17 7 0 10 #fcfcfc #000000 #000000 0 1;
#X obj 380 619 outlet~;
#X msg 506 344 1 \, 0 600;
#X msg 151 382 51;
#X msg 186 381 55;
#X msg 228 380 58;
#X msg 270 379 62;
#X msg 309 377 65;
#X text 72 277 Ebmaj13 Eb - G - Bb - D - F - C;
#X msg 351 374 72;
#X obj 801 279 bng 15 250 50 0 empty empty empty 17 7 0 10 #fcfcfc #000000 #000000;
#X obj 672 437 osc~;
#X obj 791 436 osc~;
#X obj 1050 412 line~;
#X obj 791 486 *~;
#X obj 696 393 mtof;
#X obj 740 394 mtof;
#X obj 791 389 mtof;
#X obj 844 432 osc~;
#X obj 844 385 mtof;
#X obj 899 425 osc~;
#X obj 899 378 mtof;
#X obj 993 414 osc~;
#X obj 993 367 mtof;
#X obj 729 437 osc~;
#X msg 1055 303 1 \, 0 600;
#X msg 700 341 51;
#X msg 777 339 58;
#X msg 858 336 65;
#X msg 991 333 72;
#X text 734 192 Ebmin13 Eb - Gb - Bb - Db - F - Ab - C;
#X msg 735 340 54;
#X msg 819 338 61;
#X obj 942 415 osc~;
#X obj 942 368 mtof;
#X msg 940 334 68;
#X connect 0 0 28 0;
#X connect 1 0 29 0;
#X connect 1 0 36 0;
#X connect 1 0 34 0;
#X connect 1 0 33 0;
#X connect 1 0 32 0;
#X connect 1 0 31 0;
#X connect 1 0 30 0;
#X connect 2 0 6 0;
#X connect 3 0 28 0;
#X connect 4 0 6 0;
#X connect 5 0 6 1;
#X connect 6 0 3 0;
#X connect 7 0 2 0;
#X connect 8 0 16 0;
#X connect 9 0 4 0;
#X connect 10 0 6 0;
#X connect 11 0 10 0;
#X connect 12 0 6 0;
#X connect 13 0 12 0;
#X connect 14 0 6 0;
#X connect 15 0 14 0;
#X connect 16 0 6 0;
#X connect 18 0 26 0;
#X connect 18 0 22 0;
#X connect 19 0 21 0;
#X connect 19 0 23 0;
#X connect 19 0 20 0;
#X connect 20 0 24 0;
#X connect 20 1 25 0;
#X connect 22 0 37 0;
#X connect 23 0 22 1;
#X connect 24 0 27 0;
#X connect 25 0 27 0;
#X connect 26 0 1 0;
#X connect 27 0 26 1;
#X connect 29 0 5 0;
#X connect 30 0 7 0;
#X connect 31 0 8 0;
#X connect 32 0 9 0;
#X connect 33 0 11 0;
#X connect 34 0 13 0;
#X connect 36 0 15 0;
#X connect 37 0 52 0;
#X connect 37 0 56 0;
#X connect 37 0 55 0;
#X connect 37 0 59 0;
#X connect 37 0 54 0;
#X connect 37 0 58 0;
#X connect 37 0 53 0;
#X connect 37 0 62 0;
#X connect 38 0 41 0;
#X connect 39 0 41 0;
#X connect 40 0 41 1;
#X connect 41 0 0 0;
#X connect 42 0 38 0;
#X connect 43 0 51 0;
#X connect 44 0 39 0;
#X connect 45 0 41 0;
#X connect 46 0 45 0;
#X connect 47 0 41 0;
#X connect 48 0 47 0;
#X connect 49 0 41 0;
#X connect 50 0 49 0;
#X connect 51 0 41 0;
#X connect 52 0 40 0;
#X connect 53 0 42 0;
#X connect 54 0 44 0;
#X connect 55 0 48 0;
#X connect 56 0 50 0;
#X connect 58 0 43 0;
#X connect 59 0 46 0;
#X connect 60 0 41 0;
#X connect 61 0 60 0;
#X connect 62 0 61 0;
#X restore 470 909 pd Eb13;
#N canvas -1695 0 1616 743 D7 0;
#X obj 57 20 inlet;
#X obj 154 88 r chord;
#X obj 73 121 sel 0 1;
#X floatatom 198 166 5 0 0 0 - - - 0;
#X obj 148 200 spigot;
#X obj 159 166 tgl 15 0 empty empty empty 17 7 0 10 #fcfcfc #000000 #000000 0 1;
#X msg 63 151 1;
#X msg 101 152 0;
#X obj 80 210 spigot;
#X obj 113 183 tgl 15 0 empty empty empty 17 7 0 10 #fcfcfc #000000 #000000 0 1;
#X obj 597 322 bng 15 250 50 0 empty empty empty 17 7 0 10 #fcfcfc #000000 #000000;
#X obj 468 480 osc~;
#X obj 611 578 *~ 0.1;
#X obj 587 479 osc~;
#X obj 843 448 line~;
#X obj 587 529 *~;
#X obj 492 436 mtof;
#X obj 536 437 mtof;
#X obj 587 432 mtof;
#X obj 640 475 osc~;
#X obj 640 428 mtof;
#X obj 695 468 osc~;
#X obj 695 421 mtof;
#X obj 748 462 osc~;
#X obj 748 415 mtof;
#X obj 525 480 osc~;
#X msg 531 383 57;
#X msg 573 382 60;
#X msg 615 382 62;
#X msg 695 377 69;
#X obj 797 451 osc~;
#X obj 797 404 mtof;
#X msg 766 355 72;
#X msg 649 320 66;
#X text 470 313 F# A C D F# A C;
#X msg 472 354 54;
#X msg 654 379 65;
#X msg 495 385 53;
#X text 615 264 minor;
#X obj 406 643 outlet~;
#X obj 117 21 sel 1;
#X obj 148 309 bng 15 250 50 0 empty empty empty 17 7 0 10 #fcfcfc #000000 #000000;
#X obj 27 466 osc~;
#X obj 138 543 *~ 0.1;
#X obj 138 466 osc~;
#X obj 402 445 line~;
#X obj 138 516 *~;
#X obj 43 423 mtof;
#X obj 87 424 mtof;
#X obj 138 419 mtof;
#X obj 191 462 osc~;
#X obj 191 415 mtof;
#X obj 246 455 osc~;
#X obj 246 408 mtof;
#X obj 299 449 osc~;
#X obj 299 402 mtof;
#X obj 76 467 osc~;
#X msg 46 372 54;
#X msg 82 370 57;
#X msg 124 369 60;
#X msg 166 369 62;
#X msg 205 366 66;
#X msg 246 364 69;
#X obj 348 438 osc~;
#X obj 348 391 mtof;
#X msg 341 358 72;
#X msg 402 387 1 \, 0 600;
#X msg 847 402 1 \, 0 600;
#X connect 0 0 8 0;
#X connect 0 0 4 0;
#X connect 1 0 3 0;
#X connect 1 0 5 0;
#X connect 1 0 2 0;
#X connect 2 0 6 0;
#X connect 2 1 7 0;
#X connect 4 0 10 0;
#X connect 5 0 4 1;
#X connect 6 0 9 0;
#X connect 7 0 9 0;
#X connect 8 0 41 0;
#X connect 9 0 8 1;
#X connect 10 0 37 0;
#X connect 10 0 26 0;
#X connect 10 0 28 0;
#X connect 10 0 36 0;
#X connect 10 0 29 0;
#X connect 10 0 67 0;
#X connect 10 0 32 0;
#X connect 10 0 27 0;
#X connect 11 0 15 0;
#X connect 12 0 39 0;
#X connect 13 0 15 0;
#X connect 14 0 15 1;
#X connect 15 0 12 0;
#X connect 16 0 11 0;
#X connect 17 0 25 0;
#X connect 18 0 13 0;
#X connect 19 0 15 0;
#X connect 20 0 19 0;
#X connect 21 0 15 0;
#X connect 22 0 21 0;
#X connect 23 0 15 0;
#X connect 24 0 23 0;
#X connect 25 0 15 0;
#X connect 26 0 17 0;
#X connect 27 0 18 0;
#X connect 28 0 20 0;
#X connect 29 0 24 0;
#X connect 30 0 15 0;
#X connect 31 0 30 0;
#X connect 32 0 31 0;
#X connect 36 0 22 0;
#X connect 37 0 16 0;
#X connect 41 0 57 0;
#X connect 41 0 58 0;
#X connect 41 0 59 0;
#X connect 41 0 60 0;
#X connect 41 0 61 0;
#X connect 41 0 62 0;
#X connect 41 0 66 0;
#X connect 41 0 65 0;
#X connect 42 0 46 0;
#X connect 43 0 39 0;
#X connect 44 0 46 0;
#X connect 45 0 46 1;
#X connect 46 0 43 0;
#X connect 47 0 42 0;
#X connect 48 0 56 0;
#X connect 49 0 44 0;
#X connect 50 0 46 0;
#X connect 51 0 50 0;
#X connect 52 0 46 0;
#X connect 53 0 52 0;
#X connect 54 0 46 0;
#X connect 55 0 54 0;
#X connect 56 0 46 0;
#X connect 57 0 47 0;
#X connect 58 0 48 0;
#X connect 59 0 49 0;
#X connect 60 0 51 0;
#X connect 61 0 53 0;
#X connect 62 0 55 0;
#X connect 63 0 46 0;
#X connect 64 0 63 0;
#X connect 65 0 64 0;
#X connect 66 0 45 0;
#X connect 67 0 14 0;
#X restore 1047 935 pd D7;
#N canvas 3214 281 1920 961 Gbmin 0;
#X obj 657 338 bng 15 250 50 0 empty empty empty 17 7 0 10 #fcfcfc #000000 #000000;
#X obj 542 493 osc~;
#X obj 648 576 *~ 0.1;
#X obj 647 495 osc~;
#X obj 905 469 line~;
#X obj 647 545 *~;
#X obj 552 452 mtof;
#X obj 596 453 mtof;
#X obj 647 448 mtof;
#X obj 700 491 osc~;
#X obj 700 444 mtof;
#X obj 755 484 osc~;
#X obj 755 437 mtof;
#X obj 808 478 osc~;
#X obj 808 431 mtof;
#X obj 585 496 osc~;
#X msg 555 401 54;
#X msg 591 399 57;
#X msg 755 393 69;
#X obj 857 467 osc~;
#X obj 857 420 mtof;
#X msg 633 398 61;
#X msg 675 398 64;
#X msg 714 395 66;
#X msg 818 392 73;
#X obj 390 105 sel 5;
#X obj 392 677 outlet~;
#X msg 894 389 1 \, 0 600;
#X obj 208 320 bng 15 250 50 0 empty empty empty 17 7 0 10 #fcfcfc #000000 #000000;
#X obj 93 475 osc~;
#X obj 199 558 *~ 0.1;
#X obj 198 477 osc~;
#X obj 364 457 line~;
#X obj 198 527 *~;
#X obj 103 434 mtof;
#X obj 147 435 mtof;
#X obj 198 430 mtof;
#X obj 251 473 osc~;
#X obj 251 426 mtof;
#X obj 306 466 osc~;
#X obj 306 419 mtof;
#X obj 136 478 osc~;
#X msg 106 383 54;
#X msg 184 380 61;
#X msg 353 377 1 \, 0 600;
#X msg 142 381 58;
#X text 59 292 Gbmaj7 Gb - Bb - Db - F Ab;
#X msg 226 380 65;
#X obj 300 107 inlet;
#X obj 397 175 r chord;
#X obj 316 208 sel 0 1;
#X floatatom 441 253 5 0 0 0 - - - 0;
#X obj 391 287 spigot;
#X obj 402 253 tgl 15 0 empty empty empty 17 7 0 10 #fcfcfc #000000 #000000 0 1;
#X msg 306 238 1;
#X msg 344 239 0;
#X obj 323 297 spigot;
#X obj 356 270 tgl 15 0 empty empty empty 17 7 0 10 #fcfcfc #000000 #000000 0 1;
#X text 37 589 Gb Bb Db F Gb Bb Db;
#X msg 265 377 68;
#X text 465 355 Gb A Db E Gb A Db;
#X text 474 326 Gbmin7 Gb - A - Db - E;
#X connect 0 0 16 0;
#X connect 0 0 17 0;
#X connect 0 0 21 0;
#X connect 0 0 22 0;
#X connect 0 0 23 0;
#X connect 0 0 18 0;
#X connect 0 0 24 0;
#X connect 0 0 27 0;
#X connect 1 0 5 0;
#X connect 2 0 26 0;
#X connect 3 0 5 0;
#X connect 4 0 5 1;
#X connect 5 0 2 0;
#X connect 6 0 1 0;
#X connect 7 0 15 0;
#X connect 8 0 3 0;
#X connect 9 0 5 0;
#X connect 10 0 9 0;
#X connect 11 0 5 0;
#X connect 12 0 11 0;
#X connect 13 0 5 0;
#X connect 14 0 13 0;
#X connect 15 0 5 0;
#X connect 16 0 6 0;
#X connect 17 0 7 0;
#X connect 18 0 14 0;
#X connect 19 0 5 0;
#X connect 20 0 19 0;
#X connect 21 0 8 0;
#X connect 22 0 10 0;
#X connect 23 0 12 0;
#X connect 24 0 20 0;
#X connect 27 0 4 0;
#X connect 28 0 42 0;
#X connect 28 0 45 0;
#X connect 28 0 43 0;
#X connect 28 0 47 0;
#X connect 28 0 59 0;
#X connect 28 0 44 0;
#X connect 29 0 33 0;
#X connect 30 0 26 0;
#X connect 31 0 33 0;
#X connect 32 0 33 1;
#X connect 33 0 30 0;
#X connect 34 0 29 0;
#X connect 35 0 41 0;
#X connect 36 0 31 0;
#X connect 37 0 33 0;
#X connect 38 0 37 0;
#X connect 39 0 33 0;
#X connect 40 0 39 0;
#X connect 41 0 33 0;
#X connect 42 0 34 0;
#X connect 43 0 36 0;
#X connect 44 0 32 0;
#X connect 45 0 35 0;
#X connect 47 0 38 0;
#X connect 48 0 56 0;
#X connect 48 0 52 0;
#X connect 49 0 51 0;
#X connect 49 0 53 0;
#X connect 49 0 50 0;
#X connect 50 0 54 0;
#X connect 50 1 55 0;
#X connect 52 0 0 0;
#X connect 53 0 52 1;
#X connect 54 0 57 0;
#X connect 55 0 57 0;
#X connect 56 0 28 0;
#X connect 57 0 56 1;
#X connect 59 0 40 0;
#X restore 956 932 pd Gbmin;
#X obj 1012 907 bng 15 250 50 0 empty empty empty 17 7 0 10 #fcfcfc #000000 #000000;
#X obj 930 886 bng 15 250 50 0 empty empty empty 17 7 0 10 #fcfcfc #000000 #000000;
#X obj 1078 899 bng 15 250 50 0 empty empty empty 17 7 0 10 #fcfcfc #000000 #000000;
#X obj 1079 862 bng 15 250 50 0 empty empty empty 17 7 0 10 #fcfcfc #000000 #000000;
#X obj 962 868 sel 7;
#X obj 1028 860 sel 8;
#X obj 291 422 random 9;
#X obj 360 375 sel 0 3 7 11 15;
#X msg 212 383 250;
#X msg 30 385 0;
#X obj 776 1056 adc~;
#X text 817 1052 Unity Spatializing system;
#X obj 776 1169 dac~;
#X obj 753 1115 *~;
#X obj 797 1111 *~;
#X obj 476 1195 *~;
#X obj 497 1248 dac~;
#X obj 502 1109 tgl 15 0 empty empty empty 17 7 0 10 #fcfcfc #000000 #000000 0 1;
#X text 529 1107 switch on for testing in Pd;
#X msg 495 1142 \$1 10;
#X obj 495 1163 line~;
#X obj 5 281 r chordUnity;
#X connect 1 0 2 0;
#X connect 1 0 12 0;
#X connect 2 0 15 0;
#X connect 3 0 4 0;
#X connect 4 0 84 1;
#X connect 5 0 1 0;
#X connect 6 0 5 0;
#X connect 6 0 7 0;
#X connect 6 0 134 0;
#X connect 6 0 135 0;
#X connect 7 0 5 0;
#X connect 7 0 84 0;
#X connect 8 0 139 0;
#X connect 8 0 140 0;
#X connect 8 0 141 0;
#X connect 13 0 109 0;
#X connect 13 0 110 0;
#X connect 13 0 118 0;
#X connect 13 0 119 0;
#X connect 13 0 120 0;
#X connect 13 0 121 0;
#X connect 13 0 122 0;
#X connect 13 0 130 0;
#X connect 13 0 131 0;
#X connect 14 0 103 0;
#X connect 14 0 133 0;
#X connect 15 0 1 1;
#X connect 16 0 56 0;
#X connect 17 0 16 1;
#X connect 18 0 17 0;
#X connect 19 0 20 0;
#X connect 19 0 18 0;
#X connect 20 0 21 1;
#X connect 21 0 16 0;
#X connect 22 0 28 0;
#X connect 23 0 22 1;
#X connect 23 0 24 1;
#X connect 24 0 30 0;
#X connect 25 0 27 0;
#X connect 26 0 22 0;
#X connect 27 0 23 0;
#X connect 28 0 57 0;
#X connect 29 0 24 0;
#X connect 30 0 57 0;
#X connect 33 0 38 0;
#X connect 33 0 44 0;
#X connect 33 0 26 0;
#X connect 34 0 67 0;
#X connect 35 0 34 1;
#X connect 36 0 35 0;
#X connect 37 0 68 0;
#X connect 37 0 36 0;
#X connect 38 0 34 0;
#X connect 40 0 67 0;
#X connect 41 0 40 1;
#X connect 42 0 41 0;
#X connect 43 0 42 0;
#X connect 43 0 69 0;
#X connect 44 0 40 0;
#X connect 46 0 64 0;
#X connect 47 0 46 1;
#X connect 48 0 49 0;
#X connect 49 0 47 0;
#X connect 50 0 73 0;
#X connect 56 0 83 0;
#X connect 57 0 83 0;
#X connect 58 0 59 0;
#X connect 58 0 48 0;
#X connect 58 0 71 0;
#X connect 59 0 61 0;
#X connect 60 0 59 0;
#X connect 60 0 48 0;
#X connect 60 0 70 0;
#X connect 61 0 46 0;
#X connect 62 0 64 1;
#X connect 64 0 81 0;
#X connect 65 0 59 0;
#X connect 65 0 48 0;
#X connect 65 0 72 0;
#X connect 66 0 67 1;
#X connect 67 0 82 0;
#X connect 68 0 66 0;
#X connect 69 0 66 0;
#X connect 70 0 62 0;
#X connect 71 0 62 0;
#X connect 72 0 62 0;
#X connect 73 0 19 0;
#X connect 73 0 25 0;
#X connect 73 0 43 0;
#X connect 73 0 58 0;
#X connect 73 1 19 0;
#X connect 73 1 25 0;
#X connect 73 1 43 0;
#X connect 73 2 19 0;
#X connect 73 2 25 0;
#X connect 73 2 37 0;
#X connect 73 2 65 0;
#X connect 73 3 25 0;
#X connect 73 4 19 0;
#X connect 73 4 25 0;
#X connect 73 4 43 0;
#X connect 73 5 19 0;
#X connect 73 5 25 0;
#X connect 73 5 43 0;
#X connect 73 5 58 0;
#X connect 73 6 19 0;
#X connect 73 6 25 0;
#X connect 73 6 43 0;
#X connect 73 7 19 0;
#X connect 73 7 25 0;
#X connect 73 7 37 0;
#X connect 73 7 60 0;
#X connect 73 8 25 0;
#X connect 73 9 19 0;
#X connect 73 9 25 0;
#X connect 73 9 43 0;
#X connect 73 9 65 0;
#X connect 81 0 83 0;
#X connect 82 0 83 0;
#X connect 83 0 8 0;
#X connect 84 0 1 0;
#X connect 86 0 85 0;
#X connect 88 0 111 0;
#X connect 90 0 111 0;
#X connect 92 0 111 0;
#X connect 97 0 88 0;
#X connect 98 0 90 0;
#X connect 99 0 92 0;
#X connect 100 0 117 0;
#X connect 102 0 104 0;
#X connect 103 0 132 0;
#X connect 103 1 132 0;
#X connect 104 0 101 0;
#X connect 106 0 115 0;
#X connect 108 0 116 0;
#X connect 109 0 116 0;
#X connect 109 0 107 0;
#X connect 110 0 115 0;
#X connect 110 0 105 0;
#X connect 111 0 8 0;
#X connect 113 0 123 0;
#X connect 115 0 111 0;
#X connect 116 0 111 0;
#X connect 117 0 111 0;
#X connect 118 0 90 0;
#X connect 118 0 91 0;
#X connect 119 0 88 0;
#X connect 119 0 89 0;
#X connect 120 0 95 0;
#X connect 120 0 117 0;
#X connect 121 0 93 0;
#X connect 121 0 92 0;
#X connect 122 0 123 0;
#X connect 122 0 112 0;
#X connect 123 0 111 0;
#X connect 124 0 111 0;
#X connect 125 0 111 0;
#X connect 127 0 125 0;
#X connect 129 0 124 0;
#X connect 130 0 126 0;
#X connect 130 0 125 0;
#X connect 131 0 128 0;
#X connect 131 0 124 0;
#X connect 132 0 104 0;
#X connect 133 0 102 0;
#X connect 133 1 102 0;
#X connect 133 2 102 0;
#X connect 133 3 102 0;
#X connect 133 4 102 0;
#X connect 134 0 84 1;
#X connect 135 0 86 0;
#X connect 136 0 139 1;
#X connect 136 1 140 1;
#X connect 139 0 138 0;
#X connect 140 0 138 1;
#X connect 141 0 142 0;
#X connect 141 0 142 1;
#X connect 143 0 145 0;
#X connect 145 0 146 0;
#X connect 146 0 141 1;
#X connect 147 0 85 0;
